<svg width="137" height="20" viewBox="0 0 137 20" version="1.1" xmlns="http://www.w3.org/2000/svg" xmlns:xlink="http://www.w3.org/1999/xlink">
<title>NoviceDock</title>
<desc>Created using Figma</desc>
<g id="Canvas" transform="translate(311 -1714)">
<g id="NoviceDock">
<use xlink:href="#path0_fill" transform="translate(-311 1703)" fill="#FFFFFF"/>
</g>
</g>
<defs>
<path id="path0_fill" d="M 0.96 13.52C 0.88 13.52 0.84 13.3733 0.84 13.08C 0.84 12.76 0.866667 12.5733 0.92 12.52C 1.34667 12.5467 1.8 12.5867 2.28 12.64C 2.76 12.6933 3.34667 12.72 4.04 12.72C 4.76 12.72 5.68 12.6533 6.8 12.52C 7.28 13.6133 9.25333 16.2133 12.72 20.32C 13.6 21.3867 14.44 22.4267 15.24 23.44C 15.2933 23.36 15.32 23.2133 15.32 23L 15.32 17.44C 15.32 15.92 15.2267 14.7867 15.04 14.04C 14.8533 13.6667 14.1333 13.48 12.88 13.48C 12.8533 13.48 12.8267 13.3467 12.8 13.08C 12.8 12.8133 12.8267 12.6133 12.88 12.48C 13.4933 12.5333 14.0267 12.5867 14.48 12.64C 14.96 12.6933 15.5067 12.72 16.12 12.72C 16.7333 12.72 17.84 12.64 19.44 12.48C 19.4667 12.56 19.48 12.72 19.48 12.96C 19.48 13.2 19.44 13.3867 19.36 13.52C 18.6933 13.52 18.1733 13.5867 17.8 13.72C 17.4533 13.8533 17.2533 13.9733 17.2 14.08C 17.1467 14.1867 17.1067 14.3733 17.08 14.64C 17.0533 14.9067 17.0267 15.2 17 15.52C 16.9467 16.16 16.92 16.7733 16.92 17.36L 16.92 26.32C 16.92 27.76 16.96 29 17.04 30.04C 16.9867 30.0933 16.88 30.12 16.72 30.12L 16.36 30.12C 16.0933 30.12 15.8267 29.92 15.56 29.52L 4.8 16.28L 4.8 25.84C 4.8 26.9067 4.89333 27.76 5.08 28.4C 5.21333 28.72 5.8 28.9467 6.84 29.08C 7.05333 29.1067 7.18667 29.12 7.24 29.12C 7.32 29.2533 7.36 29.44 7.36 29.68C 7.36 29.8933 7.34667 30.04 7.32 30.12C 5.72 29.96 4.61333 29.88 4 29.88C 3.38667 29.88 2.84 29.9067 2.36 29.96C 1.90667 30.0133 1.37333 30.0667 0.76 30.12C 0.706667 29.9867 0.68 29.7867 0.68 29.52C 0.706667 29.2533 0.733333 29.12 0.76 29.12C 1.32 29.12 1.8 29.04 2.2 28.88C 2.6 28.72 2.84 28.56 2.92 28.4C 3.10667 27.9733 3.2 27.0933 3.2 25.76L 3.2 16.44C 3.2 14.92 2.93333 14.0533 2.4 13.84C 1.92 13.6267 1.44 13.52 0.96 13.52ZM 26.3861 19.28C 25.1861 19.28 24.5194 20.2667 24.3861 22.24C 24.3328 22.7733 24.3061 23.3067 24.3061 23.84C 24.3061 24.3733 24.3461 24.96 24.4261 25.6C 24.5328 26.2133 24.7061 26.7733 24.9461 27.28C 25.4528 28.48 26.1328 29.08 26.9861 29.08C 28.2394 29.08 28.9461 28.1067 29.1061 26.16C 29.1328 25.6533 29.1461 25.1333 29.1461 24.6C 29.1461 24.0667 29.0928 23.48 28.9861 22.84C 28.8794 22.2 28.7061 21.6267 28.4661 21.12C 27.9594 19.8933 27.2661 19.28 26.3861 19.28ZM 26.7061 18.2C 27.6128 18.2 28.4394 18.3467 29.1861 18.64C 29.9594 18.9333 30.6261 19.3467 31.1861 19.88C 32.3328 21 32.9061 22.4 32.9061 24.08C 32.9061 25.7333 32.3061 27.1733 31.1061 28.4C 29.9594 29.6 28.5061 30.2 26.7461 30.2C 24.9061 30.2 23.4128 29.6267 22.2661 28.48C 21.1194 27.3333 20.5461 25.9333 20.5461 24.28C 20.5461 22.6533 21.1328 21.2267 22.3061 20C 23.4794 18.8 24.9461 18.2 26.7061 18.2ZM 41.479 18.32C 42.2257 18.4267 43.1323 18.48 44.199 18.48C 45.2923 18.48 46.2123 18.4267 46.959 18.32C 47.0123 18.3733 47.039 18.52 47.039 18.76C 47.0657 19 47.039 19.1733 46.959 19.28C 46.3457 19.28 45.8523 19.3867 45.479 19.6C 45.1323 19.7867 44.919 19.9733 44.839 20.16L 40.759 28.8C 40.2523 29.7867 39.8657 30.28 39.599 30.28C 39.519 30.28 39.4123 30.2133 39.279 30.08L 34.559 20.28C 34.3723 19.88 34.0657 19.6133 33.639 19.48C 33.239 19.3467 32.9857 19.28 32.879 19.28C 32.799 19.1733 32.7723 19.0133 32.799 18.8C 32.799 18.56 32.8257 18.4 32.879 18.32C 33.0657 18.3467 33.4657 18.3733 34.079 18.4C 34.719 18.4267 35.199 18.4533 35.519 18.48C 35.8657 18.48 36.4923 18.48 37.399 18.48C 38.3323 18.48 39.119 18.4267 39.759 18.32C 39.839 18.3733 39.879 18.5333 39.879 18.8C 39.879 19.04 39.839 19.2 39.759 19.28C 39.599 19.28 39.359 19.3333 39.039 19.44C 38.479 19.6 38.199 19.7867 38.199 20L 38.199 20.16C 38.199 20.24 38.2257 20.32 38.279 20.4L 40.999 25.6L 43.079 20.96C 43.2657 20.48 43.359 20.16 43.359 20C 43.359 19.84 43.2657 19.7067 43.079 19.6C 42.919 19.4933 42.719 19.4133 42.479 19.36C 42.1057 19.3067 41.7723 19.28 41.479 19.28C 41.4257 19.2267 41.399 19.08 41.399 18.84C 41.399 18.5733 41.4257 18.4 41.479 18.32ZM 53.0885 18.68C 53.0352 18.8133 52.9418 19.3067 52.8085 20.16L 52.8085 26.16C 52.8085 27.4933 52.8485 28.2667 52.9285 28.48C 53.0085 28.6667 53.1152 28.8 53.2485 28.88C 53.3818 28.9333 53.5285 28.9867 53.6885 29.04C 53.9552 29.0933 54.2352 29.12 54.5285 29.12C 54.5818 29.2267 54.6085 29.4 54.6085 29.64C 54.6085 29.88 54.5818 30.04 54.5285 30.12C 53.1952 29.9867 52.0485 29.92 51.0885 29.92C 49.9952 29.92 48.7818 29.9867 47.4485 30.12C 47.3952 30.04 47.3685 29.88 47.3685 29.64C 47.3685 29.4 47.3952 29.2267 47.4485 29.12C 48.0085 29.12 48.4218 29.0667 48.6885 28.96C 48.9552 28.8267 49.1152 28.72 49.1685 28.64C 49.3018 28.32 49.3685 27.4933 49.3685 26.16L 49.3685 22.72C 49.3685 22.5067 49.3418 22.1867 49.2885 21.76C 49.2352 21.3333 49.1818 21.0667 49.1285 20.96C 48.9418 20.6133 48.3818 20.44 47.4485 20.44C 47.3952 20.4133 47.3685 20.28 47.3685 20.04C 47.3952 19.7733 47.4352 19.64 47.4885 19.64C 48.5018 19.56 49.4885 19.3733 50.4485 19.08C 51.4085 18.76 52.1418 18.48 52.6485 18.24C 52.7285 18.2667 52.8218 18.3333 52.9285 18.44C 53.0352 18.5467 53.0885 18.6267 53.0885 18.68ZM 48.9285 13.72C 48.9285 13.1867 49.1018 12.7467 49.4485 12.4C 49.8218 12.0267 50.2752 11.84 50.8085 11.84C 51.3418 11.84 51.7952 12.0267 52.1685 12.4C 52.5418 12.7467 52.7285 13.1867 52.7285 13.72C 52.7285 14.2533 52.5418 14.7067 52.1685 15.08C 51.7952 15.4533 51.3418 15.64 50.8085 15.64C 50.2752 15.64 49.8218 15.4533 49.4485 15.08C 49.1018 14.7067 48.9285 14.2533 48.9285 13.72ZM 64.9806 26.72C 65.194 26.7733 65.3006 26.88 65.3006 27.04L 65.3006 27.44C 65.3006 27.6 65.114 27.8667 64.7406 28.24C 64.394 28.6133 64.0073 28.9333 63.5806 29.2C 62.594 29.8933 61.634 30.24 60.7006 30.24C 59.794 30.24 59.0073 30.12 58.3406 29.88C 57.674 29.6133 57.0873 29.24 56.5806 28.76C 55.4606 27.6933 54.9006 26.3467 54.9006 24.72C 54.9006 23.0667 55.594 21.5733 56.9806 20.24C 58.394 18.8533 59.994 18.16 61.7806 18.16C 63.034 18.16 63.9273 18.32 64.4606 18.64C 64.8073 18.9867 64.9806 19.3867 64.9806 19.84C 64.9806 20.2667 64.8473 20.6667 64.5806 21.04C 64.314 21.3867 63.9673 21.56 63.5406 21.56C 63.114 21.56 62.7806 21.4267 62.5406 21.16C 62.3006 20.8667 62.074 20.6 61.8606 20.36C 61.3806 19.8267 60.7806 19.56 60.0606 19.56C 59.5273 19.56 59.074 19.96 58.7006 20.76C 58.3806 21.4533 58.2206 22.2667 58.2206 23.2C 58.2206 24.1333 58.3406 24.9067 58.5806 25.52C 58.8206 26.1333 59.1273 26.6267 59.5006 27C 60.194 27.6933 60.9806 28.04 61.8606 28.04C 62.7406 28.04 63.4073 27.8933 63.8606 27.6C 64.314 27.3067 64.6873 27.0133 64.9806 26.72ZM 69.6306 22.56C 69.684 22.56 69.8573 22.56 70.1506 22.56C 70.4706 22.5333 70.8173 22.5067 71.1906 22.48C 72.044 22.4533 72.6573 22.4133 73.0306 22.36C 73.2706 22.3333 73.3906 22.1867 73.3906 21.92C 73.3906 21.6267 73.364 21.32 73.3106 21C 73.2573 20.68 73.164 20.4 73.0306 20.16C 72.7373 19.5733 72.3506 19.28 71.8706 19.28C 71.4173 19.28 71.0573 19.4133 70.7906 19.68C 70.524 19.92 70.2973 20.2133 70.1106 20.56C 69.7906 21.2533 69.6306 21.92 69.6306 22.56ZM 75.9506 23.28C 74.3506 23.4133 72.244 23.52 69.6306 23.6C 69.6306 25.2267 70.084 26.4267 70.9906 27.2C 71.684 27.76 72.4306 28.04 73.2306 28.04C 74.0573 28.04 74.6973 27.8933 75.1506 27.6C 75.604 27.3067 75.9773 27.0133 76.2706 26.72C 76.484 26.7733 76.5906 26.92 76.5906 27.16C 76.5906 27.4 76.5373 27.6 76.4306 27.76C 76.3506 27.8933 76.1773 28.1067 75.9106 28.4C 75.644 28.6667 75.3106 28.9333 74.9106 29.2C 73.8973 29.8933 72.924 30.24 71.9906 30.24C 71.0573 30.24 70.2573 30.12 69.5906 29.88C 68.924 29.6133 68.3373 29.24 67.8306 28.76C 66.7373 27.72 66.1906 26.3733 66.1906 24.72C 66.1906 23.0133 66.7773 21.52 67.9506 20.24C 69.204 18.88 70.564 18.2 72.0306 18.2C 73.604 18.2 74.804 18.6667 75.6306 19.6C 76.324 20.3467 76.6706 21.2133 76.6706 22.2C 76.6706 22.4933 76.604 22.7467 76.4706 22.96C 76.3373 23.1733 76.164 23.28 75.9506 23.28ZM 83.555 13.96C 83.5017 14.12 83.4617 14.3333 83.435 14.6C 83.435 14.8667 83.435 16.88 83.435 20.64L 83.435 26.6C 83.435 27.3733 83.515 27.96 83.675 28.36C 83.755 28.5467 83.955 28.6933 84.275 28.8C 84.6217 28.9067 84.9683 28.96 85.315 28.96C 87.475 28.96 89.0617 28.36 90.075 27.16C 91.0883 25.9333 91.595 24.0267 91.595 21.44C 91.595 18.9333 90.9683 16.9867 89.715 15.6C 88.5417 14.2933 86.9417 13.64 84.915 13.64C 84.595 13.64 84.3017 13.6533 84.035 13.68C 83.795 13.7067 83.635 13.8 83.555 13.96ZM 81.635 12.64C 82.7817 12.64 84.1283 12.6133 85.675 12.56C 88.7417 12.56 91.195 13.3067 93.035 14.8C 94.875 16.3467 95.795 18.4533 95.795 21.12C 95.795 24.1067 94.795 26.3733 92.795 27.92C 90.9817 29.36 88.5417 30.08 85.475 30.08C 82.9417 30.08 80.395 30.08 77.835 30.08C 77.7817 30 77.755 29.84 77.755 29.6C 77.755 29.36 77.7817 29.2 77.835 29.12C 77.9417 29.12 78.1683 29.0933 78.515 29.04C 79.1017 28.96 79.4483 28.8267 79.555 28.64C 79.6883 28.32 79.755 27.4933 79.755 26.16L 79.755 16.44C 79.755 15.16 79.6883 14.3333 79.555 13.96C 79.3683 13.6933 78.795 13.56 77.835 13.56C 77.7817 13.4533 77.755 13.28 77.755 13.04C 77.755 12.8 77.7817 12.64 77.835 12.56C 78.4483 12.6133 79.0883 12.64 79.755 12.64L 81.635 12.64ZM 102.763 19.28C 101.563 19.28 100.896 20.2667 100.763 22.24C 100.71 22.7733 100.683 23.3067 100.683 23.84C 100.683 24.3733 100.723 24.96 100.803 25.6C 100.91 26.2133 101.083 26.7733 101.323 27.28C 101.83 28.48 102.51 29.08 103.363 29.08C 104.616 29.08 105.323 28.1067 105.483 26.16C 105.51 25.6533 105.523 25.1333 105.523 24.6C 105.523 24.0667 105.47 23.48 105.363 22.84C 105.256 22.2 105.083 21.6267 104.843 21.12C 104.336 19.8933 103.643 19.28 102.763 19.28ZM 103.083 18.2C 103.99 18.2 104.816 18.3467 105.563 18.64C 106.336 18.9333 107.003 19.3467 107.563 19.88C 108.71 21 109.283 22.4 109.283 24.08C 109.283 25.7333 108.683 27.1733 107.483 28.4C 106.336 29.6 104.883 30.2 103.123 30.2C 101.283 30.2 99.7897 29.6267 98.643 28.48C 97.4964 27.3333 96.923 25.9333 96.923 24.28C 96.923 22.6533 97.5097 21.2267 98.683 20C 99.8564 18.8 101.323 18.2 103.083 18.2ZM 120.176 26.72C 120.389 26.7733 120.496 26.88 120.496 27.04L 120.496 27.44C 120.496 27.6 120.309 27.8667 119.936 28.24C 119.589 28.6133 119.203 28.9333 118.776 29.2C 117.789 29.8933 116.829 30.24 115.896 30.24C 114.989 30.24 114.203 30.12 113.536 29.88C 112.869 29.6133 112.283 29.24 111.776 28.76C 110.656 27.6933 110.096 26.3467 110.096 24.72C 110.096 23.0667 110.789 21.5733 112.176 20.24C 113.589 18.8533 115.189 18.16 116.976 18.16C 118.229 18.16 119.123 18.32 119.656 18.64C 120.003 18.9867 120.176 19.3867 120.176 19.84C 120.176 20.2667 120.043 20.6667 119.776 21.04C 119.509 21.3867 119.163 21.56 118.736 21.56C 118.309 21.56 117.976 21.4267 117.736 21.16C 117.496 20.8667 117.269 20.6 117.056 20.36C 116.576 19.8267 115.976 19.56 115.256 19.56C 114.723 19.56 114.269 19.96 113.896 20.76C 113.576 21.4533 113.416 22.2667 113.416 23.2C 113.416 24.1333 113.536 24.9067 113.776 25.52C 114.016 26.1333 114.323 26.6267 114.696 27C 115.389 27.6933 116.176 28.04 117.056 28.04C 117.936 28.04 118.603 27.8933 119.056 27.6C 119.509 27.3067 119.883 27.0133 120.176 26.72ZM 131.386 18.52L 132.306 18.52C 132.546 18.52 133.546 18.48 135.306 18.4C 135.386 18.5333 135.413 18.7067 135.386 18.92C 135.359 19.1333 135.306 19.2667 135.226 19.32C 134.026 19.48 133.213 19.7067 132.786 20C 132.386 20.2933 131.879 20.7333 131.266 21.32C 130.653 21.88 129.946 22.52 129.146 23.24C 130.293 24.5733 131.106 25.5067 131.586 26.04C 132.093 26.5467 132.519 27 132.866 27.4C 133.239 27.8 133.573 28.12 133.866 28.36C 134.159 28.5733 134.426 28.7333 134.666 28.84C 134.986 28.9733 135.439 29.04 136.026 29.04C 136.106 29.2 136.133 29.3733 136.106 29.56C 136.079 29.72 136.053 29.8133 136.026 29.84C 135.466 30.0533 134.679 30.16 133.666 30.16C 131.959 30.16 130.653 29.64 129.746 28.6C 128.839 27.6933 127.799 26.5067 126.626 25.04C 126.573 24.9867 126.533 24.9467 126.506 24.92C 126.506 24.8933 126.439 24.8133 126.306 24.68L 126.306 26.16C 126.306 27.4933 126.346 28.2667 126.426 28.48C 126.506 28.6667 126.613 28.8 126.746 28.88C 126.906 28.9333 127.066 28.9867 127.226 29.04C 127.519 29.0933 127.839 29.12 128.186 29.12C 128.239 29.2267 128.266 29.4 128.266 29.64C 128.266 29.88 128.239 30.04 128.186 30.12C 126.853 29.9867 125.639 29.92 124.546 29.92C 123.479 29.92 122.279 29.9867 120.946 30.12C 120.893 30.04 120.866 29.88 120.866 29.64C 120.866 29.4 120.893 29.2267 120.946 29.12C 121.506 29.12 121.919 29.0667 122.186 28.96C 122.453 28.8267 122.599 28.72 122.626 28.64C 122.759 28.3733 122.826 28.04 122.826 27.64C 122.853 27.24 122.866 26.7467 122.866 26.16L 122.866 15.28C 122.866 14.6933 122.826 14.32 122.746 14.16C 122.666 13.9733 122.546 13.8533 122.386 13.8C 122.253 13.7467 122.106 13.7067 121.946 13.68C 121.573 13.5733 121.293 13.52 121.106 13.52C 121.053 13.52 121.013 13.4 120.986 13.16C 120.986 12.8933 121.026 12.7333 121.106 12.68C 122.893 12.4933 124.453 12.1867 125.786 11.76C 126.026 11.68 126.159 11.64 126.186 11.64C 126.373 11.6933 126.506 11.8533 126.586 12.12C 126.533 12.44 126.479 12.7467 126.426 13.04C 126.346 13.44 126.306 14.0267 126.306 14.8L 126.266 23.76C 126.693 23.6 127.359 23.1467 128.266 22.4C 129.173 21.6267 129.773 21.0667 130.066 20.72C 130.386 20.3733 130.546 20.1333 130.546 20C 130.546 19.84 130.479 19.7333 130.346 19.68C 130.213 19.6 130.053 19.5333 129.866 19.48C 129.546 19.3733 129.213 19.32 128.866 19.32C 128.813 19.1867 128.786 19.0133 128.786 18.8C 128.813 18.5867 128.866 18.4533 128.946 18.4C 129.373 18.4267 129.786 18.4533 130.186 18.48C 130.586 18.5067 130.986 18.52 131.386 18.52Z"/>
</defs>
</svg>
