<svg width="164" height="24" viewBox="0 0 164 24" version="1.1" xmlns="http://www.w3.org/2000/svg" xmlns:xlink="http://www.w3.org/1999/xlink">
<title>NoviceDock</title>
<desc>Created using Figma</desc>
<g id="Canvas" transform="translate(3646 -1720)">
<g id="NoviceDock">
<use xlink:href="#path0_fill" transform="translate(-3646 1707)" fill="#2A324B"/>
</g>
</g>
<defs>
<path id="path0_fill" d="M 1.152 16.224C 1.056 16.224 1.008 16.048 1.008 15.696C 1.008 15.312 1.04 15.088 1.104 15.024C 1.616 15.056 2.16 15.104 2.736 15.168C 3.312 15.232 4.016 15.264 4.848 15.264C 5.712 15.264 6.816 15.184 8.16 15.024C 8.736 16.336 11.104 19.456 15.264 24.384C 16.32 25.664 17.328 26.912 18.288 28.128C 18.352 28.032 18.384 27.856 18.384 27.6L 18.384 20.928C 18.384 19.104 18.272 17.744 18.048 16.848C 17.824 16.4 16.96 16.176 15.456 16.176C 15.424 16.176 15.392 16.016 15.36 15.696C 15.36 15.376 15.392 15.136 15.456 14.976C 16.192 15.04 16.832 15.104 17.376 15.168C 17.952 15.232 18.608 15.264 19.344 15.264C 20.08 15.264 21.408 15.168 23.328 14.976C 23.36 15.072 23.376 15.264 23.376 15.552C 23.376 15.84 23.328 16.064 23.232 16.224C 22.432 16.224 21.808 16.304 21.36 16.464C 20.944 16.624 20.704 16.768 20.64 16.896C 20.576 17.024 20.528 17.248 20.496 17.568C 20.464 17.888 20.432 18.24 20.4 18.624C 20.336 19.392 20.304 20.128 20.304 20.832L 20.304 31.584C 20.304 33.312 20.352 34.8 20.448 36.048C 20.384 36.112 20.256 36.144 20.064 36.144L 19.632 36.144C 19.312 36.144 18.992 35.904 18.672 35.424L 5.76 19.536L 5.76 31.008C 5.76 32.288 5.872 33.312 6.096 34.08C 6.256 34.464 6.96 34.736 8.208 34.896C 8.464 34.928 8.624 34.944 8.688 34.944C 8.784 35.104 8.832 35.328 8.832 35.616C 8.832 35.872 8.816 36.048 8.784 36.144C 6.864 35.952 5.536 35.856 4.8 35.856C 4.064 35.856 3.408 35.888 2.832 35.952C 2.288 36.016 1.648 36.08 0.912 36.144C 0.848 35.984 0.816 35.744 0.816 35.424C 0.848 35.104 0.88 34.944 0.912 34.944C 1.584 34.944 2.16 34.848 2.64 34.656C 3.12 34.464 3.408 34.272 3.504 34.08C 3.728 33.568 3.84 32.512 3.84 30.912L 3.84 19.728C 3.84 17.904 3.52 16.864 2.88 16.608C 2.304 16.352 1.728 16.224 1.152 16.224ZM 31.6633 23.136C 30.2233 23.136 29.4233 24.32 29.2633 26.688C 29.1993 27.328 29.1673 27.968 29.1673 28.608C 29.1673 29.248 29.2153 29.952 29.3113 30.72C 29.4393 31.456 29.6473 32.128 29.9353 32.736C 30.5433 34.176 31.3593 34.896 32.3833 34.896C 33.8873 34.896 34.7353 33.728 34.9273 31.392C 34.9593 30.784 34.9753 30.16 34.9753 29.52C 34.9753 28.88 34.9113 28.176 34.7833 27.408C 34.6553 26.64 34.4473 25.952 34.1593 25.344C 33.5513 23.872 32.7193 23.136 31.6633 23.136ZM 32.0473 21.84C 33.1353 21.84 34.1273 22.016 35.0233 22.368C 35.9513 22.72 36.7513 23.216 37.4233 23.856C 38.7993 25.2 39.4873 26.88 39.4873 28.896C 39.4873 30.88 38.7673 32.608 37.3273 34.08C 35.9513 35.52 34.2073 36.24 32.0953 36.24C 29.8873 36.24 28.0953 35.552 26.7193 34.176C 25.3433 32.8 24.6553 31.12 24.6553 29.136C 24.6553 27.184 25.3593 25.472 26.7673 24C 28.1753 22.56 29.9353 21.84 32.0473 21.84ZM 49.7748 21.984C 50.6708 22.112 51.7588 22.176 53.0388 22.176C 54.3508 22.176 55.4548 22.112 56.3508 21.984C 56.4148 22.048 56.4468 22.224 56.4468 22.512C 56.4788 22.8 56.4468 23.008 56.3508 23.136C 55.6148 23.136 55.0228 23.264 54.5748 23.52C 54.1588 23.744 53.9028 23.968 53.8068 24.192L 48.9108 34.56C 48.3028 35.744 47.8388 36.336 47.5188 36.336C 47.4228 36.336 47.2948 36.256 47.1348 36.096L 41.4708 24.336C 41.2468 23.856 40.8788 23.536 40.3668 23.376C 39.8868 23.216 39.5828 23.136 39.4548 23.136C 39.3588 23.008 39.3268 22.816 39.3588 22.56C 39.3588 22.272 39.3908 22.08 39.4548 21.984C 39.6788 22.016 40.1588 22.048 40.8948 22.08C 41.6628 22.112 42.2388 22.144 42.6228 22.176C 43.0388 22.176 43.7908 22.176 44.8788 22.176C 45.9988 22.176 46.9428 22.112 47.7108 21.984C 47.8068 22.048 47.8548 22.24 47.8548 22.56C 47.8548 22.848 47.8068 23.04 47.7108 23.136C 47.5188 23.136 47.2308 23.2 46.8468 23.328C 46.1748 23.52 45.8388 23.744 45.8388 24L 45.8388 24.192C 45.8388 24.288 45.8708 24.384 45.9348 24.48L 49.1988 30.72L 51.6948 25.152C 51.9188 24.576 52.0308 24.192 52.0308 24C 52.0308 23.808 51.9188 23.648 51.6948 23.52C 51.5028 23.392 51.2628 23.296 50.9748 23.232C 50.5268 23.168 50.1268 23.136 49.7748 23.136C 49.7108 23.072 49.6788 22.896 49.6788 22.608C 49.6788 22.288 49.7108 22.08 49.7748 21.984ZM 63.7062 22.416C 63.6422 22.576 63.5302 23.168 63.3702 24.192L 63.3702 31.392C 63.3702 32.992 63.4182 33.92 63.5142 34.176C 63.6102 34.4 63.7382 34.56 63.8982 34.656C 64.0582 34.72 64.2342 34.784 64.4262 34.848C 64.7462 34.912 65.0822 34.944 65.4342 34.944C 65.4982 35.072 65.5302 35.28 65.5302 35.568C 65.5302 35.856 65.4982 36.048 65.4342 36.144C 63.8342 35.984 62.4582 35.904 61.3062 35.904C 59.9942 35.904 58.5382 35.984 56.9382 36.144C 56.8742 36.048 56.8422 35.856 56.8422 35.568C 56.8422 35.28 56.8742 35.072 56.9382 34.944C 57.6102 34.944 58.1062 34.88 58.4262 34.752C 58.7462 34.592 58.9382 34.464 59.0022 34.368C 59.1622 33.984 59.2422 32.992 59.2422 31.392L 59.2422 27.264C 59.2422 27.008 59.2102 26.624 59.1462 26.112C 59.0822 25.6 59.0182 25.28 58.9542 25.152C 58.7302 24.736 58.0582 24.528 56.9382 24.528C 56.8742 24.496 56.8422 24.336 56.8422 24.048C 56.8742 23.728 56.9222 23.568 56.9862 23.568C 58.2022 23.472 59.3862 23.248 60.5382 22.896C 61.6902 22.512 62.5702 22.176 63.1782 21.888C 63.2742 21.92 63.3862 22 63.5142 22.128C 63.6422 22.256 63.7062 22.352 63.7062 22.416ZM 58.7142 16.464C 58.7142 15.824 58.9222 15.296 59.3382 14.88C 59.7862 14.432 60.3302 14.208 60.9702 14.208C 61.6102 14.208 62.1542 14.432 62.6022 14.88C 63.0502 15.296 63.2742 15.824 63.2742 16.464C 63.2742 17.104 63.0502 17.648 62.6022 18.096C 62.1542 18.544 61.6102 18.768 60.9702 18.768C 60.3302 18.768 59.7862 18.544 59.3382 18.096C 58.9222 17.648 58.7142 17.104 58.7142 16.464ZM 77.9768 32.064C 78.2327 32.128 78.3608 32.256 78.3608 32.448L 78.3608 32.928C 78.3608 33.12 78.1368 33.44 77.6887 33.888C 77.2727 34.336 76.8088 34.72 76.2967 35.04C 75.1127 35.872 73.9608 36.288 72.8408 36.288C 71.7528 36.288 70.8087 36.144 70.0088 35.856C 69.2088 35.536 68.5048 35.088 67.8967 34.512C 66.5527 33.232 65.8808 31.616 65.8808 29.664C 65.8808 27.68 66.7128 25.888 68.3768 24.288C 70.0728 22.624 71.9927 21.792 74.1367 21.792C 75.6408 21.792 76.7127 21.984 77.3528 22.368C 77.7688 22.784 77.9768 23.264 77.9768 23.808C 77.9768 24.32 77.8168 24.8 77.4967 25.248C 77.1768 25.664 76.7608 25.872 76.2487 25.872C 75.7367 25.872 75.3367 25.712 75.0488 25.392C 74.7608 25.04 74.4887 24.72 74.2328 24.432C 73.6568 23.792 72.9368 23.472 72.0728 23.472C 71.4327 23.472 70.8888 23.952 70.4407 24.912C 70.0567 25.744 69.8648 26.72 69.8648 27.84C 69.8648 28.96 70.0088 29.888 70.2968 30.624C 70.5848 31.36 70.9528 31.952 71.4007 32.4C 72.2327 33.232 73.1768 33.648 74.2328 33.648C 75.2887 33.648 76.0887 33.472 76.6328 33.12C 77.1768 32.768 77.6248 32.416 77.9768 32.064ZM 83.5567 27.072C 83.6207 27.072 83.8287 27.072 84.1808 27.072C 84.5648 27.04 84.9808 27.008 85.4287 26.976C 86.4528 26.944 87.1887 26.896 87.6367 26.832C 87.9248 26.8 88.0688 26.624 88.0688 26.304C 88.0688 25.952 88.0367 25.584 87.9727 25.2C 87.9088 24.816 87.7967 24.48 87.6367 24.192C 87.2847 23.488 86.8207 23.136 86.2448 23.136C 85.7007 23.136 85.2688 23.296 84.9488 23.616C 84.6287 23.904 84.3568 24.256 84.1327 24.672C 83.7487 25.504 83.5567 26.304 83.5567 27.072ZM 91.1407 27.936C 89.2207 28.096 86.6927 28.224 83.5567 28.32C 83.5567 30.272 84.1008 31.712 85.1888 32.64C 86.0207 33.312 86.9167 33.648 87.8768 33.648C 88.8688 33.648 89.6367 33.472 90.1807 33.12C 90.7248 32.768 91.1727 32.416 91.5247 32.064C 91.7807 32.128 91.9088 32.304 91.9088 32.592C 91.9088 32.88 91.8448 33.12 91.7168 33.312C 91.6207 33.472 91.4127 33.728 91.0928 34.08C 90.7727 34.4 90.3727 34.72 89.8928 35.04C 88.6768 35.872 87.5088 36.288 86.3887 36.288C 85.2688 36.288 84.3087 36.144 83.5088 35.856C 82.7088 35.536 82.0048 35.088 81.3967 34.512C 80.0847 33.264 79.4288 31.648 79.4288 29.664C 79.4288 27.616 80.1327 25.824 81.5407 24.288C 83.0447 22.656 84.6768 21.84 86.4368 21.84C 88.3248 21.84 89.7647 22.4 90.7567 23.52C 91.5887 24.416 92.0047 25.456 92.0047 26.64C 92.0047 26.992 91.9247 27.296 91.7647 27.552C 91.6047 27.808 91.3967 27.936 91.1407 27.936ZM 100.266 16.752C 100.202 16.944 100.154 17.2 100.122 17.52C 100.122 17.84 100.122 20.256 100.122 24.768L 100.122 31.92C 100.122 32.848 100.218 33.552 100.41 34.032C 100.506 34.256 100.746 34.432 101.13 34.56C 101.546 34.688 101.962 34.752 102.378 34.752C 104.97 34.752 106.874 34.032 108.09 32.592C 109.306 31.12 109.914 28.832 109.914 25.728C 109.914 22.72 109.162 20.384 107.658 18.72C 106.25 17.152 104.33 16.368 101.898 16.368C 101.514 16.368 101.162 16.384 100.842 16.416C 100.554 16.448 100.362 16.56 100.266 16.752ZM 97.962 15.168C 99.338 15.168 100.954 15.136 102.81 15.072C 106.49 15.072 109.434 15.968 111.642 17.76C 113.85 19.616 114.954 22.144 114.954 25.344C 114.954 28.928 113.754 31.648 111.354 33.504C 109.178 35.232 106.25 36.096 102.57 36.096C 99.53 36.096 96.474 36.096 93.402 36.096C 93.338 36 93.306 35.808 93.306 35.52C 93.306 35.232 93.338 35.04 93.402 34.944C 93.53 34.944 93.802 34.912 94.218 34.848C 94.922 34.752 95.338 34.592 95.466 34.368C 95.626 33.984 95.706 32.992 95.706 31.392L 95.706 19.728C 95.706 18.192 95.626 17.2 95.466 16.752C 95.242 16.432 94.554 16.272 93.402 16.272C 93.338 16.144 93.306 15.936 93.306 15.648C 93.306 15.36 93.338 15.168 93.402 15.072C 94.138 15.136 94.906 15.168 95.706 15.168L 97.962 15.168ZM 123.316 23.136C 121.876 23.136 121.076 24.32 120.916 26.688C 120.852 27.328 120.82 27.968 120.82 28.608C 120.82 29.248 120.868 29.952 120.964 30.72C 121.092 31.456 121.3 32.128 121.588 32.736C 122.196 34.176 123.012 34.896 124.036 34.896C 125.54 34.896 126.388 33.728 126.58 31.392C 126.612 30.784 126.628 30.16 126.628 29.52C 126.628 28.88 126.564 28.176 126.436 27.408C 126.308 26.64 126.1 25.952 125.812 25.344C 125.204 23.872 124.372 23.136 123.316 23.136ZM 123.7 21.84C 124.788 21.84 125.78 22.016 126.676 22.368C 127.604 22.72 128.404 23.216 129.076 23.856C 130.452 25.2 131.14 26.88 131.14 28.896C 131.14 30.88 130.42 32.608 128.98 34.08C 127.604 35.52 125.86 36.24 123.748 36.24C 121.54 36.24 119.748 35.552 118.372 34.176C 116.996 32.8 116.308 31.12 116.308 29.136C 116.308 27.184 117.012 25.472 118.42 24C 119.828 22.56 121.588 21.84 123.7 21.84ZM 144.211 32.064C 144.467 32.128 144.595 32.256 144.595 32.448L 144.595 32.928C 144.595 33.12 144.371 33.44 143.923 33.888C 143.507 34.336 143.043 34.72 142.531 35.04C 141.347 35.872 140.195 36.288 139.075 36.288C 137.987 36.288 137.043 36.144 136.243 35.856C 135.443 35.536 134.739 35.088 134.131 34.512C 132.787 33.232 132.115 31.616 132.115 29.664C 132.115 27.68 132.947 25.888 134.611 24.288C 136.307 22.624 138.227 21.792 140.371 21.792C 141.875 21.792 142.947 21.984 143.587 22.368C 144.003 22.784 144.211 23.264 144.211 23.808C 144.211 24.32 144.051 24.8 143.731 25.248C 143.411 25.664 142.995 25.872 142.483 25.872C 141.971 25.872 141.571 25.712 141.283 25.392C 140.995 25.04 140.723 24.72 140.467 24.432C 139.891 23.792 139.171 23.472 138.307 23.472C 137.667 23.472 137.123 23.952 136.675 24.912C 136.291 25.744 136.099 26.72 136.099 27.84C 136.099 28.96 136.243 29.888 136.531 30.624C 136.819 31.36 137.187 31.952 137.635 32.4C 138.467 33.232 139.411 33.648 140.467 33.648C 141.523 33.648 142.323 33.472 142.867 33.12C 143.411 32.768 143.859 32.416 144.211 32.064ZM 157.663 22.224L 158.767 22.224C 159.055 22.224 160.255 22.176 162.367 22.08C 162.463 22.24 162.495 22.448 162.463 22.704C 162.431 22.96 162.367 23.12 162.271 23.184C 160.831 23.376 159.855 23.648 159.343 24C 158.863 24.352 158.255 24.88 157.519 25.584C 156.783 26.256 155.935 27.024 154.975 27.888C 156.351 29.488 157.327 30.608 157.903 31.248C 158.511 31.856 159.023 32.4 159.439 32.88C 159.887 33.36 160.287 33.744 160.639 34.032C 160.991 34.288 161.311 34.48 161.599 34.608C 161.983 34.768 162.527 34.848 163.231 34.848C 163.327 35.04 163.359 35.248 163.327 35.472C 163.295 35.664 163.263 35.776 163.231 35.808C 162.559 36.064 161.615 36.192 160.399 36.192C 158.351 36.192 156.783 35.568 155.695 34.32C 154.607 33.232 153.359 31.808 151.951 30.048C 151.887 29.984 151.839 29.936 151.807 29.904C 151.807 29.872 151.727 29.776 151.567 29.616L 151.567 31.392C 151.567 32.992 151.615 33.92 151.711 34.176C 151.807 34.4 151.935 34.56 152.095 34.656C 152.287 34.72 152.479 34.784 152.671 34.848C 153.023 34.912 153.407 34.944 153.823 34.944C 153.887 35.072 153.919 35.28 153.919 35.568C 153.919 35.856 153.887 36.048 153.823 36.144C 152.223 35.984 150.767 35.904 149.455 35.904C 148.175 35.904 146.735 35.984 145.135 36.144C 145.071 36.048 145.039 35.856 145.039 35.568C 145.039 35.28 145.071 35.072 145.135 34.944C 145.807 34.944 146.303 34.88 146.623 34.752C 146.943 34.592 147.119 34.464 147.151 34.368C 147.311 34.048 147.391 33.648 147.391 33.168C 147.423 32.688 147.439 32.096 147.439 31.392L 147.439 18.336C 147.439 17.632 147.391 17.184 147.295 16.992C 147.199 16.768 147.055 16.624 146.863 16.56C 146.703 16.496 146.527 16.448 146.335 16.416C 145.887 16.288 145.551 16.224 145.327 16.224C 145.263 16.224 145.215 16.08 145.183 15.792C 145.183 15.472 145.231 15.28 145.327 15.216C 147.471 14.992 149.343 14.624 150.943 14.112C 151.231 14.016 151.391 13.968 151.423 13.968C 151.647 14.032 151.807 14.224 151.903 14.544C 151.839 14.928 151.775 15.296 151.711 15.648C 151.615 16.128 151.567 16.832 151.567 17.76L 151.519 28.512C 152.031 28.32 152.831 27.776 153.919 26.88C 155.007 25.952 155.727 25.28 156.079 24.864C 156.463 24.448 156.655 24.16 156.655 24C 156.655 23.808 156.575 23.68 156.415 23.616C 156.255 23.52 156.063 23.44 155.839 23.376C 155.455 23.248 155.055 23.184 154.639 23.184C 154.575 23.024 154.543 22.816 154.543 22.56C 154.575 22.304 154.639 22.144 154.735 22.08C 155.247 22.112 155.743 22.144 156.223 22.176C 156.703 22.208 157.183 22.224 157.663 22.224Z"/>
</defs>
</svg>
